<svg xmlns="http://www.w3.org/2000/svg" viewBox="0 0 48 48" shape-rendering="crispEdges" aria-hidden="true"><!-- retrato de Vesper, «el Deshilador» 48×48 (§2.4.1): cyanita de gesto hosco — piel en rampa de señal fría (Verdemar/Turquesa/Turquesa profunda), pelo blanco Arena/Arena velada/Ceniza, abrigo en neutral mecánica; luz arriba-izquierda, contorno selectivo Noche, hilo suelto Ceniza en el hombro derecho --><g fill="#14110f"><rect x="17" y="2" width="14" height="1"/><rect x="14" y="3" width="1" height="1"/><rect x="33" y="3" width="1" height="1"/><rect x="12" y="4" width="1" height="1"/><rect x="34" y="4" width="1" height="1"/><rect x="11" y="5" width="1" height="1"/><rect x="35" y="5" width="1" height="1"/><rect x="10" y="6" width="1" height="1"/><rect x="36" y="6" width="1" height="1"/><rect x="9" y="7" width="1" height="1"/><rect x="37" y="7" width="1" height="1"/><rect x="9" y="8" width="1" height="1"/><rect x="38" y="8" width="1" height="1"/><rect x="9" y="9" width="1" height="1"/><rect x="38" y="9" width="1" height="1"/><rect x="9" y="10" width="1" height="1"/><rect x="38" y="10" width="1" height="1"/><rect x="9" y="11" width="1" height="1"/><rect x="38" y="11" width="1" height="1"/><rect x="9" y="12" width="1" height="1"/><rect x="38" y="12" width="1" height="1"/><rect x="9" y="13" width="1" height="1"/><rect x="38" y="13" width="1" height="1"/><rect x="9" y="14" width="1" height="1"/><rect x="38" y="14" width="1" height="1"/><rect x="9" y="15" width="1" height="1"/><rect x="16" y="15" width="5" height="1"/><rect x="27" y="15" width="5" height="1"/><rect x="38" y="15" width="1" height="1"/><rect x="9" y="16" width="1" height="1"/><rect x="20" y="16" width="2" height="1"/><rect x="26" y="16" width="2" height="1"/><rect x="38" y="16" width="1" height="1"/><rect x="9" y="17" width="1" height="1"/><rect x="38" y="17" width="1" height="1"/><rect x="9" y="18" width="1" height="1"/><rect x="16" y="18" width="2" height="1"/><rect x="26" y="18" width="2" height="1"/><rect x="38" y="18" width="1" height="1"/><rect x="9" y="19" width="1" height="1"/><rect x="38" y="19" width="1" height="1"/><rect x="9" y="20" width="1" height="1"/><rect x="38" y="20" width="1" height="1"/><rect x="9" y="21" width="1" height="1"/><rect x="38" y="21" width="1" height="1"/><rect x="9" y="22" width="1" height="1"/><rect x="38" y="22" width="1" height="1"/><rect x="9" y="23" width="1" height="1"/><rect x="38" y="23" width="1" height="1"/><rect x="9" y="24" width="1" height="1"/><rect x="38" y="24" width="1" height="1"/><rect x="9" y="25" width="1" height="1"/><rect x="38" y="25" width="1" height="1"/><rect x="9" y="26" width="1" height="1"/><rect x="21" y="26" width="6" height="1"/><rect x="38" y="26" width="1" height="1"/><rect x="9" y="27" width="1" height="1"/><rect x="19" y="27" width="2" height="1"/><rect x="27" y="27" width="2" height="1"/><rect x="38" y="27" width="1" height="1"/><rect x="9" y="28" width="2" height="1"/><rect x="37" y="28" width="1" height="1"/><rect x="12" y="29" width="1" height="1"/><rect x="36" y="29" width="1" height="1"/><rect x="13" y="30" width="1" height="1"/><rect x="29" y="30" width="1" height="1"/><rect x="35" y="30" width="1" height="1"/><rect x="15" y="31" width="5" height="1"/><rect x="27" y="31" width="2" height="1"/><rect x="35" y="31" width="1" height="1"/><rect x="13" y="32" width="7" height="1"/><rect x="28" y="32" width="7" height="1"/><rect x="12" y="33" width="1" height="1"/><rect x="33" y="33" width="1" height="1"/><rect x="10" y="34" width="3" height="1"/><rect x="34" y="34" width="3" height="1"/><rect x="7" y="35" width="3" height="1"/><rect x="35" y="35" width="3" height="1"/><rect x="5" y="36" width="2" height="1"/><rect x="36" y="36" width="3" height="1"/><rect x="4" y="37" width="1" height="1"/><rect x="38" y="37" width="2" height="1"/><rect x="3" y="38" width="1" height="1"/><rect x="39" y="38" width="1" height="1"/><rect x="3" y="39" width="1" height="1"/><rect x="38" y="39" width="1" height="1"/><rect x="3" y="40" width="1" height="1"/><rect x="39" y="40" width="1" height="1"/><rect x="3" y="41" width="1" height="1"/><rect x="40" y="41" width="1" height="1"/><rect x="3" y="42" width="1" height="1"/><rect x="41" y="42" width="1" height="1"/><rect x="3" y="43" width="1" height="1"/><rect x="41" y="43" width="1" height="1"/><rect x="3" y="44" width="1" height="1"/><rect x="41" y="44" width="1" height="1"/><rect x="3" y="45" width="1" height="1"/><rect x="41" y="45" width="1" height="1"/><rect x="3" y="46" width="1" height="1"/><rect x="41" y="46" width="1" height="1"/><rect x="3" y="47" width="1" height="1"/><rect x="41" y="47" width="1" height="1"/></g><g fill="#1e1a17"><rect x="29" y="33" width="4" height="1"/><rect x="29" y="34" width="5" height="1"/><rect x="29" y="35" width="6" height="1"/><rect x="29" y="36" width="7" height="1"/><rect x="24" y="37" width="14" height="1"/><rect x="24" y="38" width="15" height="1"/><rect x="24" y="39" width="14" height="1"/><rect x="24" y="40" width="15" height="1"/><rect x="24" y="41" width="16" height="1"/><rect x="25" y="42" width="16" height="1"/><rect x="25" y="43" width="16" height="1"/><rect x="25" y="44" width="16" height="1"/><rect x="25" y="45" width="16" height="1"/><rect x="25" y="46" width="16" height="1"/><rect x="25" y="47" width="16" height="1"/></g><g fill="#292420"><rect x="17" y="33" width="2" height="1"/><rect x="28" y="33" width="1" height="1"/><rect x="18" y="34" width="1" height="1"/><rect x="27" y="34" width="2" height="1"/><rect x="17" y="35" width="2" height="1"/><rect x="26" y="35" width="3" height="1"/><rect x="16" y="36" width="3" height="1"/><rect x="25" y="36" width="4" height="1"/><rect x="16" y="37" width="3" height="1"/><rect x="21" y="37" width="3" height="1"/><rect x="16" y="38" width="3" height="1"/><rect x="21" y="38" width="3" height="1"/><rect x="16" y="39" width="8" height="1"/><rect x="16" y="40" width="8" height="1"/><rect x="16" y="41" width="8" height="1"/><rect x="16" y="42" width="9" height="1"/><rect x="16" y="43" width="9" height="1"/><rect x="16" y="44" width="9" height="1"/><rect x="16" y="45" width="9" height="1"/><rect x="16" y="46" width="9" height="1"/><rect x="16" y="47" width="9" height="1"/></g><g fill="#3a332d"><rect x="13" y="33" width="4" height="1"/><rect x="13" y="34" width="5" height="1"/><rect x="10" y="35" width="7" height="1"/><rect x="7" y="36" width="9" height="1"/><rect x="5" y="37" width="11" height="1"/><rect x="4" y="38" width="12" height="1"/><rect x="4" y="39" width="12" height="1"/><rect x="4" y="40" width="12" height="1"/><rect x="4" y="41" width="12" height="1"/><rect x="4" y="42" width="12" height="1"/><rect x="4" y="43" width="12" height="1"/><rect x="4" y="44" width="12" height="1"/><rect x="4" y="45" width="12" height="1"/><rect x="4" y="46" width="12" height="1"/><rect x="4" y="47" width="12" height="1"/></g><g fill="#8a7d72"><rect x="34" y="5" width="1" height="1"/><rect x="35" y="6" width="1" height="1"/><rect x="35" y="7" width="2" height="1"/><rect x="36" y="8" width="2" height="1"/><rect x="36" y="9" width="2" height="1"/><rect x="32" y="10" width="1" height="1"/><rect x="36" y="10" width="2" height="1"/><rect x="32" y="11" width="1" height="1"/><rect x="36" y="11" width="2" height="1"/><rect x="32" y="12" width="1" height="1"/><rect x="36" y="12" width="2" height="1"/><rect x="32" y="13" width="1" height="1"/><rect x="36" y="13" width="2" height="1"/><rect x="32" y="14" width="1" height="1"/><rect x="36" y="14" width="2" height="1"/><rect x="32" y="15" width="1" height="1"/><rect x="36" y="15" width="2" height="1"/><rect x="32" y="16" width="1" height="1"/><rect x="36" y="16" width="2" height="1"/><rect x="32" y="17" width="1" height="1"/><rect x="35" y="17" width="3" height="1"/><rect x="32" y="18" width="1" height="1"/><rect x="35" y="18" width="3" height="1"/><rect x="32" y="19" width="1" height="1"/><rect x="35" y="19" width="3" height="1"/><rect x="32" y="20" width="1" height="1"/><rect x="35" y="20" width="3" height="1"/><rect x="32" y="21" width="1" height="1"/><rect x="35" y="21" width="3" height="1"/><rect x="32" y="22" width="1" height="1"/><rect x="35" y="22" width="3" height="1"/><rect x="32" y="23" width="1" height="1"/><rect x="35" y="23" width="3" height="1"/><rect x="32" y="24" width="1" height="1"/><rect x="35" y="24" width="3" height="1"/><rect x="32" y="25" width="1" height="1"/><rect x="35" y="25" width="3" height="1"/><rect x="32" y="26" width="1" height="1"/><rect x="35" y="26" width="3" height="1"/><rect x="32" y="27" width="1" height="1"/><rect x="35" y="27" width="3" height="1"/><rect x="31" y="28" width="2" height="1"/><rect x="35" y="28" width="2" height="1"/><rect x="31" y="29" width="1" height="1"/><rect x="34" y="29" width="2" height="1"/><rect x="33" y="30" width="2" height="1"/><rect x="34" y="31" width="1" height="1"/><rect x="39" y="39" width="2" height="1"/><rect x="41" y="40" width="1" height="1"/><rect x="41" y="41" width="1" height="1"/></g><g fill="#c4b5a6"><rect x="27" y="3" width="6" height="1"/><rect x="27" y="4" width="7" height="1"/><rect x="27" y="5" width="7" height="1"/><rect x="27" y="6" width="8" height="1"/><rect x="27" y="7" width="8" height="1"/><rect x="27" y="8" width="9" height="1"/><rect x="25" y="9" width="11" height="1"/><rect x="13" y="10" width="1" height="1"/><rect x="24" y="10" width="2" height="1"/><rect x="33" y="10" width="3" height="1"/><rect x="12" y="11" width="1" height="1"/><rect x="23" y="11" width="2" height="1"/><rect x="33" y="11" width="3" height="1"/><rect x="12" y="12" width="1" height="1"/><rect x="33" y="12" width="3" height="1"/><rect x="12" y="13" width="1" height="1"/><rect x="33" y="13" width="3" height="1"/><rect x="11" y="14" width="1" height="1"/><rect x="33" y="14" width="3" height="1"/><rect x="11" y="15" width="1" height="1"/><rect x="33" y="15" width="3" height="1"/><rect x="11" y="16" width="1" height="1"/><rect x="33" y="16" width="3" height="1"/><rect x="11" y="17" width="1" height="1"/><rect x="33" y="17" width="2" height="1"/><rect x="11" y="18" width="1" height="1"/><rect x="33" y="18" width="2" height="1"/><rect x="11" y="19" width="1" height="1"/><rect x="33" y="19" width="2" height="1"/><rect x="11" y="20" width="1" height="1"/><rect x="33" y="20" width="2" height="1"/><rect x="11" y="21" width="1" height="1"/><rect x="33" y="21" width="2" height="1"/><rect x="11" y="22" width="1" height="1"/><rect x="33" y="22" width="2" height="1"/><rect x="11" y="23" width="1" height="1"/><rect x="33" y="23" width="2" height="1"/><rect x="11" y="24" width="1" height="1"/><rect x="33" y="24" width="2" height="1"/><rect x="11" y="25" width="1" height="1"/><rect x="33" y="25" width="2" height="1"/><rect x="11" y="26" width="1" height="1"/><rect x="33" y="26" width="2" height="1"/><rect x="11" y="27" width="1" height="1"/><rect x="33" y="27" width="2" height="1"/><rect x="11" y="28" width="1" height="1"/><rect x="33" y="28" width="2" height="1"/><rect x="32" y="29" width="2" height="1"/></g><g fill="#f9ebdc"><rect x="15" y="3" width="12" height="1"/><rect x="13" y="4" width="14" height="1"/><rect x="12" y="5" width="15" height="1"/><rect x="11" y="6" width="16" height="1"/><rect x="10" y="7" width="17" height="1"/><rect x="10" y="8" width="17" height="1"/><rect x="10" y="9" width="15" height="1"/><rect x="10" y="10" width="3" height="1"/><rect x="22" y="10" width="2" height="1"/><rect x="10" y="11" width="2" height="1"/><rect x="10" y="12" width="2" height="1"/><rect x="10" y="13" width="2" height="1"/><rect x="10" y="14" width="1" height="1"/><rect x="10" y="15" width="1" height="1"/><rect x="10" y="16" width="1" height="1"/><rect x="10" y="17" width="1" height="1"/><rect x="10" y="18" width="1" height="1"/><rect x="18" y="18" width="2" height="1"/><rect x="28" y="18" width="2" height="1"/><rect x="10" y="19" width="1" height="1"/><rect x="10" y="20" width="1" height="1"/><rect x="10" y="21" width="1" height="1"/><rect x="10" y="22" width="1" height="1"/><rect x="10" y="23" width="1" height="1"/><rect x="10" y="24" width="1" height="1"/><rect x="10" y="25" width="1" height="1"/><rect x="10" y="26" width="1" height="1"/><rect x="10" y="27" width="1" height="1"/></g><g fill="#a6dad5"><rect x="14" y="10" width="8" height="1"/><rect x="26" y="10" width="2" height="1"/><rect x="13" y="11" width="10" height="1"/><rect x="25" y="11" width="3" height="1"/><rect x="13" y="12" width="10" height="1"/><rect x="13" y="13" width="10" height="1"/><rect x="12" y="14" width="10" height="1"/><rect x="12" y="15" width="4" height="1"/><rect x="12" y="16" width="6" height="1"/><rect x="12" y="17" width="3" height="1"/><rect x="23" y="17" width="1" height="1"/><rect x="12" y="18" width="2" height="1"/><rect x="22" y="18" width="2" height="1"/><rect x="12" y="19" width="2" height="1"/><rect x="22" y="19" width="2" height="1"/><rect x="12" y="20" width="3" height="1"/><rect x="22" y="20" width="1" height="1"/><rect x="12" y="21" width="3" height="1"/><rect x="22" y="21" width="1" height="1"/><rect x="12" y="22" width="3" height="1"/><rect x="22" y="22" width="1" height="1"/><rect x="12" y="23" width="2" height="1"/><rect x="12" y="24" width="2" height="1"/><rect x="12" y="25" width="2" height="1"/><rect x="12" y="26" width="2" height="1"/><rect x="12" y="27" width="2" height="1"/><rect x="21" y="28" width="3" height="1"/><rect x="21" y="29" width="3" height="1"/><rect x="21" y="30" width="2" height="1"/><rect x="19" y="37" width="2" height="1"/></g><g fill="#018ea1"><rect x="28" y="10" width="3" height="1"/><rect x="28" y="11" width="3" height="1"/><rect x="23" y="12" width="8" height="1"/><rect x="23" y="13" width="8" height="1"/><rect x="22" y="14" width="9" height="1"/><rect x="21" y="15" width="6" height="1"/><rect x="22" y="16" width="1" height="1"/><rect x="25" y="16" width="1" height="1"/><rect x="21" y="17" width="2" height="1"/><rect x="24" y="17" width="2" height="1"/><rect x="14" y="18" width="1" height="1"/><rect x="20" y="18" width="2" height="1"/><rect x="24" y="18" width="1" height="1"/><rect x="14" y="19" width="1" height="1"/><rect x="20" y="19" width="2" height="1"/><rect x="24" y="19" width="2" height="1"/><rect x="15" y="20" width="7" height="1"/><rect x="23" y="20" width="1" height="1"/><rect x="25" y="20" width="5" height="1"/><rect x="15" y="21" width="7" height="1"/><rect x="23" y="21" width="1" height="1"/><rect x="25" y="21" width="5" height="1"/><rect x="15" y="22" width="7" height="1"/><rect x="23" y="22" width="1" height="1"/><rect x="26" y="22" width="4" height="1"/><rect x="14" y="23" width="8" height="1"/><rect x="26" y="23" width="4" height="1"/><rect x="14" y="24" width="14" height="1"/><rect x="14" y="25" width="14" height="1"/><rect x="14" y="26" width="7" height="1"/><rect x="27" y="26" width="1" height="1"/><rect x="14" y="27" width="5" height="1"/><rect x="12" y="28" width="9" height="1"/><rect x="24" y="28" width="4" height="1"/><rect x="13" y="29" width="8" height="1"/><rect x="24" y="29" width="4" height="1"/><rect x="14" y="30" width="7" height="1"/><rect x="23" y="30" width="4" height="1"/><rect x="19" y="33" width="1" height="1"/><rect x="19" y="34" width="2" height="1"/><rect x="19" y="35" width="2" height="1"/><rect x="19" y="36" width="2" height="1"/><rect x="19" y="38" width="2" height="1"/></g><g fill="#016e7d"><rect x="31" y="10" width="1" height="1"/><rect x="31" y="11" width="1" height="1"/><rect x="31" y="12" width="1" height="1"/><rect x="31" y="13" width="1" height="1"/><rect x="31" y="14" width="1" height="1"/><rect x="18" y="16" width="2" height="1"/><rect x="23" y="16" width="2" height="1"/><rect x="28" y="16" width="4" height="1"/><rect x="15" y="17" width="6" height="1"/><rect x="26" y="17" width="6" height="1"/><rect x="15" y="18" width="1" height="1"/><rect x="25" y="18" width="1" height="1"/><rect x="30" y="18" width="2" height="1"/><rect x="15" y="19" width="5" height="1"/><rect x="26" y="19" width="6" height="1"/><rect x="24" y="20" width="1" height="1"/><rect x="30" y="20" width="2" height="1"/><rect x="24" y="21" width="1" height="1"/><rect x="30" y="21" width="2" height="1"/><rect x="24" y="22" width="2" height="1"/><rect x="30" y="22" width="2" height="1"/><rect x="22" y="23" width="4" height="1"/><rect x="30" y="23" width="2" height="1"/><rect x="28" y="24" width="4" height="1"/><rect x="28" y="25" width="4" height="1"/><rect x="28" y="26" width="4" height="1"/><rect x="21" y="27" width="6" height="1"/><rect x="29" y="27" width="3" height="1"/><rect x="28" y="28" width="3" height="1"/><rect x="28" y="29" width="3" height="1"/><rect x="27" y="30" width="2" height="1"/><rect x="20" y="31" width="7" height="1"/><rect x="20" y="32" width="8" height="1"/><rect x="20" y="33" width="8" height="1"/><rect x="21" y="34" width="6" height="1"/><rect x="21" y="35" width="5" height="1"/><rect x="21" y="36" width="4" height="1"/></g></svg>
