<svg xmlns="http://www.w3.org/2000/svg" viewBox="0 0 96 72" shape-rendering="crispEdges" aria-hidden="true"><!-- «El claro del propósito» 96×72 (§2.4.1, §2.4.3, §3.7.1): poste de caminos, mesa de orientación con mapa antiguo y farol de latón ámbar (foco único, luz arriba-izquierda); al fondo torre, carpas y engranaje tras el seto; follaje que enmarca. Khepri-16 --><g fill="#292420"><rect x="0" y="36" width="96" height="4"/><rect x="0" y="41" width="96" height="31"/></g><g fill="#14110f"><rect x="0" y="0" width="96" height="30"/></g><g fill="#1e1a17"><rect x="0" y="30" width="96" height="6"/><rect x="0" y="40" width="96" height="1"/></g><g fill="#1e1a17"><rect x="12" y="6" width="1" height="6"/><rect x="7" y="12" width="2" height="2"/><rect x="10" y="12" width="2" height="2"/><rect x="13" y="12" width="2" height="2"/><rect x="16" y="12" width="2" height="2"/><rect x="9" y="14" width="9" height="6"/><rect x="71" y="19" width="3" height="2"/><rect x="9" y="20" width="2" height="3"/><rect x="12" y="20" width="6" height="3"/><rect x="37" y="21" width="1" height="2"/><rect x="68" y="21" width="9" height="2"/><rect x="9" y="23" width="9" height="10"/><rect x="37" y="23" width="3" height="2"/><rect x="62" y="23" width="2" height="2"/><rect x="65" y="23" width="17" height="2"/><rect x="37" y="25" width="5" height="2"/><rect x="63" y="25" width="19" height="2"/><rect x="37" y="27" width="7" height="2"/><rect x="50" y="27" width="1" height="2"/><rect x="62" y="27" width="21" height="2"/><rect x="37" y="29" width="9" height="2"/><rect x="48" y="29" width="5" height="2"/><rect x="61" y="29" width="23" height="1"/><rect x="61" y="30" width="11" height="1"/><rect x="73" y="30" width="11" height="1"/><rect x="37" y="31" width="18" height="2"/><rect x="61" y="31" width="9" height="2"/><rect x="75" y="31" width="9" height="2"/><rect x="57" y="32" width="3" height="1"/><rect x="85" y="32" width="3" height="1"/><rect x="9" y="33" width="2" height="3"/><rect x="40" y="33" width="5" height="2"/><rect x="52" y="33" width="5" height="2"/><rect x="64" y="33" width="5" height="3"/><rect x="76" y="33" width="5" height="3"/><rect x="61" y="36" width="11" height="1"/><rect x="73" y="36" width="11" height="1"/><rect x="62" y="41" width="2" height="2"/><rect x="80" y="41" width="2" height="2"/><rect x="71" y="45" width="3" height="2"/></g><g fill="#292420"><rect x="8" y="14" width="1" height="19"/><rect x="36" y="19" width="1" height="3"/><rect x="11" y="20" width="1" height="3"/><rect x="35" y="22" width="2" height="1"/><rect x="33" y="23" width="4" height="2"/><rect x="31" y="25" width="6" height="2"/><rect x="29" y="27" width="8" height="2"/><rect x="27" y="29" width="10" height="2"/><rect x="25" y="31" width="12" height="2"/><rect x="1" y="33" width="1" height="1"/><rect x="5" y="33" width="4" height="1"/><rect x="11" y="33" width="7" height="3"/><rect x="21" y="33" width="1" height="1"/><rect x="25" y="33" width="15" height="1"/><rect x="45" y="33" width="1" height="1"/><rect x="49" y="33" width="3" height="1"/><rect x="57" y="33" width="7" height="3"/><rect x="69" y="33" width="1" height="1"/><rect x="73" y="33" width="3" height="1"/><rect x="81" y="33" width="7" height="3"/><rect x="90" y="33" width="1" height="1"/><rect x="94" y="33" width="2" height="1"/><rect x="1" y="34" width="8" height="2"/><rect x="21" y="34" width="19" height="1"/><rect x="45" y="34" width="7" height="2"/><rect x="69" y="34" width="7" height="2"/><rect x="90" y="34" width="6" height="2"/><rect x="21" y="35" width="7" height="1"/><rect x="33" y="35" width="7" height="1"/></g><g fill="#3a332d"><rect x="13" y="7" width="3" height="2"/><rect x="35" y="21" width="1" height="1"/><rect x="34" y="22" width="1" height="1"/><rect x="2" y="33" width="3" height="1"/><rect x="22" y="33" width="3" height="1"/><rect x="46" y="33" width="3" height="1"/><rect x="70" y="33" width="3" height="1"/><rect x="91" y="33" width="3" height="1"/></g><g fill="#14110f"><rect x="72" y="30" width="1" height="1"/><rect x="70" y="31" width="5" height="2"/><rect x="72" y="36" width="1" height="1"/></g><g fill="#8a7d72"><rect x="12" y="5" width="1" height="1"/><rect x="79" y="7" width="1" height="1"/><rect x="34" y="9" width="1" height="1"/></g><g fill="#c4b5a6"><rect x="55" y="3" width="1" height="1"/></g><g fill="#3a332d"><rect x="23" y="19" width="5" height="1"/><rect x="25" y="20" width="1" height="38"/><rect x="27" y="25" width="17" height="1"/><rect x="27" y="26" width="1" height="1"/><rect x="29" y="26" width="1" height="1"/><rect x="33" y="26" width="2" height="1"/><rect x="39" y="26" width="6" height="1"/><rect x="46" y="26" width="12" height="1"/><rect x="27" y="27" width="17" height="1"/><rect x="46" y="27" width="1" height="31"/><rect x="57" y="27" width="1" height="1"/><rect x="8" y="32" width="16" height="1"/><rect x="7" y="33" width="5" height="1"/><rect x="16" y="33" width="2" height="1"/><rect x="21" y="33" width="2" height="1"/><rect x="8" y="34" width="16" height="1"/><rect x="27" y="39" width="13" height="1"/><rect x="27" y="40" width="1" height="1"/><rect x="29" y="40" width="1" height="1"/><rect x="34" y="40" width="7" height="1"/><rect x="27" y="41" width="13" height="1"/><rect x="54" y="50" width="10" height="1"/><rect x="58" y="51" width="6" height="1"/><rect x="60" y="52" width="4" height="7"/><rect x="48" y="54" width="9" height="1"/><rect x="78" y="56" width="1" height="1"/><rect x="76" y="57" width="5" height="1"/><rect x="42" y="58" width="3" height="2"/><rect x="49" y="58" width="3" height="2"/><rect x="75" y="58" width="7" height="1"/><rect x="57" y="59" width="14" height="1"/><rect x="75" y="59" width="2" height="1"/><rect x="79" y="59" width="3" height="1"/><rect x="74" y="60" width="3" height="1"/><rect x="79" y="60" width="4" height="1"/><rect x="75" y="61" width="7" height="2"/><rect x="22" y="62" width="1" height="1"/><rect x="35" y="62" width="12" height="2"/><rect x="20" y="63" width="3" height="1"/><rect x="76" y="63" width="5" height="1"/><rect x="78" y="64" width="1" height="1"/><rect x="28" y="66" width="13" height="2"/></g><g fill="#14110f"><rect x="3" y="53" width="3" height="2"/><rect x="0" y="55" width="1" height="1"/><rect x="3" y="55" width="5" height="1"/><rect x="0" y="56" width="8" height="1"/><rect x="0" y="57" width="2" height="2"/><rect x="6" y="57" width="2" height="1"/><rect x="6" y="58" width="8" height="1"/><rect x="0" y="59" width="14" height="2"/><rect x="0" y="61" width="8" height="2"/><rect x="12" y="61" width="2" height="1"/><rect x="90" y="61" width="1" height="1"/><rect x="93" y="61" width="3" height="1"/><rect x="12" y="62" width="6" height="1"/><rect x="90" y="62" width="6" height="2"/><rect x="0" y="63" width="18" height="9"/><rect x="84" y="64" width="12" height="2"/><rect x="84" y="66" width="3" height="2"/><rect x="91" y="66" width="5" height="2"/><rect x="84" y="68" width="12" height="4"/></g><g fill="#292420"><rect x="26" y="20" width="1" height="8"/><rect x="28" y="26" width="1" height="1"/><rect x="47" y="27" width="1" height="31"/><rect x="26" y="28" width="16" height="1"/><rect x="26" y="29" width="1" height="13"/><rect x="23" y="33" width="1" height="1"/><rect x="10" y="35" width="14" height="1"/><rect x="90" y="36" width="1" height="4"/><rect x="28" y="40" width="1" height="1"/><rect x="84" y="40" width="1" height="2"/><rect x="26" y="42" width="12" height="1"/><rect x="26" y="43" width="1" height="15"/><rect x="66" y="45" width="2" height="1"/><rect x="63" y="46" width="2" height="1"/><rect x="61" y="47" width="3" height="1"/><rect x="64" y="50" width="10" height="1"/><rect x="64" y="51" width="6" height="1"/><rect x="64" y="52" width="5" height="7"/><rect x="77" y="55" width="2" height="1"/><rect x="45" y="58" width="4" height="2"/><rect x="73" y="59" width="1" height="2"/><rect x="77" y="59" width="2" height="2"/><rect x="83" y="59" width="1" height="2"/><rect x="56" y="60" width="16" height="1"/><rect x="77" y="65" width="2" height="1"/></g><g fill="#8a7d72"><rect x="23" y="18" width="5" height="1"/><rect x="24" y="20" width="1" height="11"/><rect x="27" y="24" width="15" height="1"/><rect x="10" y="31" width="15" height="1"/><rect x="24" y="32" width="1" height="26"/><rect x="85" y="37" width="4" height="1"/><rect x="27" y="38" width="11" height="1"/><rect x="62" y="43" width="4" height="1"/><rect x="58" y="44" width="2" height="1"/><rect x="66" y="44" width="4" height="1"/><rect x="54" y="45" width="3" height="1"/><rect x="69" y="45" width="5" height="1"/><rect x="50" y="46" width="4" height="1"/><rect x="73" y="46" width="5" height="1"/><rect x="54" y="47" width="4" height="1"/><rect x="69" y="47" width="5" height="1"/><rect x="58" y="48" width="12" height="1"/><rect x="62" y="49" width="4" height="1"/><rect x="59" y="52" width="1" height="7"/><rect x="48" y="53" width="9" height="1"/><rect x="75" y="56" width="3" height="1"/><rect x="42" y="57" width="4" height="1"/><rect x="48" y="57" width="4" height="1"/><rect x="74" y="57" width="1" height="1"/><rect x="35" y="61" width="12" height="1"/><rect x="20" y="62" width="2" height="1"/><rect x="28" y="65" width="13" height="1"/></g><g fill="#1e1a17"><rect x="2" y="57" width="4" height="2"/><rect x="27" y="58" width="7" height="1"/><rect x="30" y="59" width="7" height="1"/><rect x="50" y="60" width="6" height="1"/><rect x="8" y="61" width="4" height="2"/><rect x="91" y="61" width="2" height="1"/><rect x="66" y="62" width="9" height="1"/><rect x="70" y="63" width="6" height="1"/><rect x="81" y="63" width="3" height="1"/><rect x="87" y="66" width="4" height="2"/></g><g fill="#7a5100"><rect x="55" y="28" width="5" height="1"/><rect x="54" y="29" width="1" height="5"/><rect x="60" y="29" width="1" height="5"/><rect x="57" y="30" width="1" height="3"/><rect x="55" y="34" width="5" height="1"/><rect x="57" y="35" width="1" height="1"/><rect x="82" y="37" width="3" height="1"/><rect x="89" y="37" width="1" height="1"/><rect x="91" y="37" width="5" height="2"/><rect x="82" y="38" width="8" height="1"/><rect x="82" y="39" width="2" height="3"/></g><g fill="#c4b5a6"><rect x="30" y="26" width="3" height="1"/><rect x="35" y="26" width="4" height="1"/><rect x="12" y="33" width="4" height="1"/><rect x="18" y="33" width="3" height="1"/><rect x="30" y="40" width="4" height="1"/><rect x="61" y="45" width="5" height="1"/><rect x="68" y="45" width="1" height="1"/><rect x="54" y="46" width="5" height="1"/><rect x="62" y="46" width="1" height="1"/><rect x="65" y="46" width="7" height="1"/><rect x="58" y="47" width="2" height="1"/><rect x="64" y="47" width="5" height="1"/></g><g fill="#efa517"><rect x="57" y="29" width="3" height="1"/><rect x="58" y="30" width="2" height="3"/><rect x="52" y="31" width="1" height="1"/><rect x="55" y="31" width="2" height="2"/><rect x="62" y="31" width="1" height="1"/><rect x="55" y="33" width="5" height="1"/><rect x="60" y="45" width="1" height="1"/><rect x="59" y="46" width="3" height="1"/><rect x="60" y="47" width="1" height="1"/></g><g fill="#8fc46b"><rect x="20" y="41" width="1" height="1"/><rect x="23" y="41" width="1" height="2"/><rect x="74" y="41" width="1" height="1"/><rect x="77" y="41" width="1" height="1"/><rect x="20" y="42" width="2" height="1"/><rect x="74" y="42" width="2" height="1"/><rect x="77" y="42" width="2" height="1"/><rect x="4" y="52" width="2" height="1"/><rect x="1" y="55" width="2" height="1"/></g><g fill="#f9ebdc"><rect x="55" y="29" width="2" height="2"/><rect x="60" y="44" width="6" height="1"/><rect x="57" y="45" width="3" height="1"/><rect x="72" y="46" width="1" height="1"/></g><g fill="#a6dad5"><rect x="21" y="41" width="1" height="1"/><rect x="75" y="41" width="1" height="1"/></g></svg>
