<svg xmlns="http://www.w3.org/2000/svg" viewBox="0 0 128 72" shape-rendering="crispEdges" aria-hidden="true"><g fill="var(--surface-raised)"><rect x="0" y="27" width="128" height="45"/></g><g fill="var(--pa-2)"><rect x="14" y="12" width="42" height="1"/><rect x="6" y="34" width="10" height="1"/><rect x="40" y="31" width="12" height="1"/><rect x="86" y="33" width="9" height="1"/><rect x="16" y="44" width="11" height="1"/><rect x="64" y="47" width="10" height="1"/><rect x="104" y="42" width="12" height="1"/><rect x="30" y="58" width="12" height="1"/><rect x="78" y="62" width="10" height="1"/><rect x="8" y="66" width="9" height="1"/><rect x="112" y="64" width="9" height="1"/><rect x="8" y="30" width="34" height="1"/><rect x="8" y="49" width="34" height="1"/><rect x="12" y="34" width="6" height="1"/><rect x="24" y="42" width="7" height="1"/><rect x="30" y="36" width="4" height="1"/><rect x="79" y="41" width="4" height="1"/><rect x="85" y="42" width="4" height="1"/><rect x="70" y="32" width="2" height="2"/><rect x="96" y="46" width="2" height="2"/><rect x="88" y="54" width="2" height="2"/></g><g fill="var(--pa-3)"><rect x="18" y="9" width="2" height="3"/><rect x="24" y="9" width="2" height="3"/><rect x="33" y="9" width="2" height="3"/><rect x="44" y="9" width="2" height="3"/><rect x="8" y="30" width="34" height="20"/><rect x="52" y="34" width="6" height="5"/><rect x="62" y="36" width="5" height="6"/><rect x="56" y="44" width="7" height="5"/><rect x="76" y="40" width="16" height="4"/><rect x="101" y="35" width="6" height="4"/><rect x="46" y="54" width="2" height="2"/><rect x="116" y="32" width="2" height="8"/></g><g fill="currentColor"><rect x="18" y="8" width="2" height="1"/><rect x="24" y="8" width="2" height="1"/><rect x="33" y="8" width="2" height="1"/><rect x="44" y="8" width="2" height="1"/><rect x="0" y="26" width="128" height="1"/><rect x="52" y="34" width="6" height="1"/><rect x="62" y="36" width="5" height="1"/><rect x="56" y="44" width="7" height="1"/><rect x="74" y="39" width="2" height="6"/><rect x="92" y="39" width="2" height="6"/><rect x="100" y="34" width="8" height="1"/><rect x="101" y="39" width="1" height="2"/><rect x="106" y="39" width="1" height="2"/><rect x="114" y="40" width="6" height="2"/></g><g fill="var(--accent)"><rect x="54" y="36" width="2" height="2"/><rect x="116" y="29" width="2" height="3"/></g><g fill="var(--interactive)"><rect x="14" y="44" width="2" height="1"/><rect x="17" y="42" width="2" height="1"/><rect x="20" y="40" width="2" height="1"/><rect x="23" y="38" width="2" height="1"/><rect x="26" y="36" width="2" height="1"/><rect x="29" y="34" width="2" height="1"/></g></svg>
